<?xml version="1.0" encoding="UTF-8"?>
<svg id="Layer_1" data-name="Layer 1" xmlns="http://www.w3.org/2000/svg" viewBox="0 0 360 360">
  <defs>
    <style>
      .cls-1 {
        fill: #0013BA;
      }
    </style>
  </defs>
  <polygon class="cls-1" points="25 180 35 140 60 120 40 200 25 180"/>
  <polygon class="cls-1" points="295 220 320 120 335 140 320 200 295 220"/>
  <polygon class="cls-1" points="60 200 85 100 105 100 80 200 60 200"/>
  <polygon class="cls-1" points="255 220 285 100 305 100 275 220 255 220"/>
  <polygon class="cls-1" points="100 200 130 80 150 80 120 200 100 200"/>
  <polygon class="cls-1" points="225 180 255 60 270 80 245 180 225 180"/>
  <polygon class="cls-1" points="140 200 170 80 195 60 155 220 140 200"/>
  <polygon class="cls-1" points="240 200 200 200 235 60 215 60 175 220 215 220 195 300 240 200"/>
</svg>