mtllib Asset 9.mtl
# Vertex Positions: 
g groupNumber_0
v -4.942 -0.706 -0.304992
v -4.236 2.118 -0.304992
v -5.1185 1.412 -0.304992
v -5.4715 -3.28757e-10 -0.304992
v -4.942 -0.706 0.304992
v -4.236 2.118 0.304992
v -5.1185 1.412 0.304992
v -5.4715 -3.28757e-10 0.304992
v -4.589 0.706 -1.66533e-16
v -4.67725 1.765 -1.66533e-16
v -5.295 0.706 -1.66533e-16
v -5.20675 -0.353 -1.66533e-16


# Vertex Texture Coordinates :
vt 0.0971102 0
vt 0.226565 0.517821
vt 0.0647464 0.388366
vt 1.87024e-05 0.129455
vt 0.362602 0
vt 0.233147 0.517821
vt 0.394966 0.388366
vt 0.459694 0.129455
vt 0.466242 2.49994e-05
vt 1 2.49994e-05
vt 0.46629 0.118479
vt 0.67352 0.118479
vt 0.940399 0.118479
vt 0 0.5244
vt 0.161819 0.5244
vt 0.466242 0.111874
vt 1 0.111874
vt 0.46629 0.230328
vt 0.67352 0.230328
vt 0.940399 0.230328
vt 0 0.63625
vt 0.161819 0.63625
vt 0.733121 0.0559497
vt 0.569905 0.174403
vt 0.80696 0.174403
vt 0.0809096 0.580325


# Vertex Surface Normals: 
vn 0 0 1
vn 0 0 -1
vn 0.970143 -0.242536 0
vn 0.970143 -0.242536 0
vn -0.624695 0.780869 0
vn -0.841622 0.540067 0
vn -0.970143 0.242536 0
vn -0.8 -0.6 0
vn -0.8 -0.6 0
vn 0.970143 -0.242536 0
vn 0.970143 -0.242536 0
vn -0.624695 0.780869 0
vn -0.841622 0.540067 0
vn -0.970143 0.242536 0
vn -0.8 -0.6 0
vn -0.8 -0.6 0
vn 0.970143 -0.242536 0
vn -0.733158 0.660468 0
vn -0.905882 0.391301 0
vn -0.8 -0.6 0


# Faces: 
usemtl material0
f 7/3/1 8/4/1 5/1/1
f 5/1/1 6/2/1 7/3/1
f 4/8/2 3/7/2 1/5/2
f 2/6/2 1/5/2 3/7/2
f 9/23/17 1/9/3 2/10/4
f 9/23/17 2/10/4 6/17/11
f 9/23/17 6/17/11 5/16/10
f 9/23/17 5/16/10 1/9/3
f 10/24/18 2/11/5 3/12/6
f 10/24/18 3/12/6 7/19/13
f 10/24/18 7/19/13 6/18/12
f 10/24/18 6/18/12 2/11/5
f 11/25/19 3/12/6 4/13/7
f 11/25/19 4/13/7 8/20/14
f 11/25/19 8/20/14 7/19/13
f 11/25/19 7/19/13 3/12/6
f 12/26/20 4/14/8 1/15/9
f 12/26/20 1/15/9 5/22/16
f 12/26/20 5/22/16 8/21/15
f 12/26/20 8/21/15 4/14/8

# Vertex Positions: 
g groupNumber_1
v 4.942 -0.706 -0.304992
v 5.4715 1.412 -0.304992
v 4.942 2.118 -0.304992
v 4.0595 -1.412 -0.304992
v 4.942 -0.706 0.304992
v 5.4715 1.412 0.304992
v 4.942 2.118 0.304992
v 4.0595 -1.412 0.304992
v 5.20675 0.353 -2.77556e-16
v 5.20675 1.765 -2.77556e-16
v 4.50075 0.353 -2.77556e-16
v 4.50075 -1.059 -2.77556e-16


# Vertex Texture Coordinates :
vt 0.134688 0.107751
vt 0.215501 0.431003
vt 0.134688 0.538753
vt 0 0
vt 0.303164 0.107751
vt 0.222351 0.431003
vt 0.303164 0.538753
vt 0.437852 0
vt 0.444693 3.23257e-06
vt 0.777893 3.23257e-06
vt 0.784739 3.23257e-06
vt 0.919427 3.23257e-06
vt 0.444666 0.0999254
vt 1 0.0999254
vt 1.86797e-05 0.545576
vt 0.172504 0.545576
vt 0.444693 0.0930998
vt 0.777893 0.0930998
vt 0.784739 0.0930998
vt 0.919427 0.0930998
vt 0.444666 0.193022
vt 1 0.193022
vt 1.86797e-05 0.638672
vt 0.172504 0.638672
vt 0.611293 0.0465515
vt 0.852083 0.0465515
vt 0.722333 0.146474
vt 0.0862613 0.592124


# Vertex Surface Normals: 
vn 0 0 1
vn 0 0 -1
vn 0.841622 -0.540067 0
vn 0.970143 -0.242536 0
vn 0.8 0.6 0
vn 0.8 0.6 0
vn -0.970143 0.242536 0
vn -0.970143 0.242536 0
vn 0.624695 -0.780869 0
vn 0.841622 -0.540067 0
vn 0.841622 -0.540067 0
vn 0.970143 -0.242536 0
vn 0.8 0.6 0
vn 0.8 0.6 0
vn -0.970143 0.242536 0
vn -0.970143 0.242536 0
vn 0.624695 -0.780869 0
vn 0.841622 -0.540067 0
vn 0.905882 -0.391301 0
vn 0.8 0.6 0
vn -0.970143 0.242536 0
vn 0.733158 -0.660468 0


# Faces: 
usemtl material1
f 20/30/21 17/27/21 19/29/21
f 18/28/21 19/29/21 17/27/21
f 13/31/22 16/34/22 15/33/22
f 15/33/22 14/32/22 13/31/22
f 21/51/39 13/35/23 14/36/24
f 21/51/39 14/36/24 18/44/32
f 21/51/39 18/44/32 17/43/31
f 21/51/39 17/43/31 13/35/23
f 22/52/40 14/37/25 15/38/26
f 22/52/40 15/38/26 19/46/34
f 22/52/40 19/46/34 18/45/33
f 22/52/40 18/45/33 14/37/25
f 23/53/41 15/39/27 16/40/28
f 23/53/41 16/40/28 20/48/36
f 23/53/41 20/48/36 19/47/35
f 23/53/41 19/47/35 15/39/27
f 24/54/42 16/41/29 13/42/30
f 24/54/42 13/42/30 17/50/38
f 24/54/42 17/50/38 20/49/37
f 24/54/42 20/49/37 16/41/29

# Vertex Positions: 
g groupNumber_2
v -3.53 -0.706 -0.304992
v -2.6475 2.824 -0.304992
v -3.3535 2.824 -0.304992
v -4.236 -0.706 -0.304992
v -3.53 -0.706 0.304992
v -2.6475 2.824 0.304992
v -3.3535 2.824 0.304992
v -4.236 -0.706 0.304992
v -3.08875 1.059 -2.77556e-16
v -3.0005 2.824 -2.77556e-16
v -3.79475 1.059 -2.77556e-16
v -3.883 -0.706 -2.77556e-16


# Vertex Texture Coordinates :
vt 0.102269 0
vt 0.23006 0.511162
vt 0.127827 0.511162
vt 3.69237e-05 0
vt 0.364389 0
vt 0.236599 0.511162
vt 0.338831 0.511162
vt 0.466621 0
vt 0.473107 3.067e-06
vt 1 3.067e-06
vt 0 0.517635
vt 0.102232 0.517635
vt 0.473107 0.0948078
vt 1 0.0948078
vt 0.108697 0.517635
vt 0.21093 0.517635
vt 0.473107 0.0883318
vt 1 0.0883318
vt 0 0.605963
vt 0.102232 0.605963
vt 0.473107 0.183137
vt 1 0.183137
vt 0.108697 0.605963
vt 0.21093 0.605963
vt 0.736553 0.0441674
vt 0.0511162 0.561799
vt 0.736553 0.138972
vt 0.159814 0.561799


# Vertex Surface Normals: 
vn 0 0 1
vn 0 0 -1
vn 0.970143 -0.242536 0
vn 0.970143 -0.242536 0
vn 0 1 0
vn 0 1 0
vn -0.970143 0.242536 0
vn -0.970143 0.242536 0
vn 0 -1 0
vn 0 -1 0
vn 0.970143 -0.242536 0
vn 0.970143 -0.242536 0
vn 0 1 0
vn 0 1 0
vn -0.970143 0.242536 0
vn -0.970143 0.242536 0
vn 0 -1 0
vn 0 -1 0
vn 0.970143 -0.242536 0
vn 0 1 0
vn -0.970143 0.242536 0
vn 0 -1 0


# Faces: 
usemtl material2
f 32/58/43 29/55/43 31/57/43
f 30/56/43 31/57/43 29/55/43
f 25/59/44 28/62/44 27/61/44
f 27/61/44 26/60/44 25/59/44
f 33/79/61 25/63/45 26/64/46
f 33/79/61 26/64/46 30/72/54
f 33/79/61 30/72/54 29/71/53
f 33/79/61 29/71/53 25/63/45
f 34/80/62 26/65/47 27/66/48
f 34/80/62 27/66/48 31/74/56
f 34/80/62 31/74/56 30/73/55
f 34/80/62 30/73/55 26/65/47
f 35/81/63 27/67/49 28/68/50
f 35/81/63 28/68/50 32/76/58
f 35/81/63 32/76/58 31/75/57
f 35/81/63 31/75/57 27/67/49
f 36/82/64 28/69/51 25/70/52
f 36/82/64 25/70/52 29/78/60
f 36/82/64 29/78/60 32/77/59
f 36/82/64 32/77/59 28/69/51

# Vertex Positions: 
g groupNumber_3
v 2.2945 -9.86272e-10 -0.304992
v 3.177 3.53 -0.304992
v 2.6475 4.236 -0.304992
v 1.5885 -9.86272e-10 -0.304992
v 2.2945 -9.86272e-10 0.304992
v 3.177 3.53 0.304992
v 2.6475 4.236 0.304992
v 1.5885 -9.86272e-10 0.304992
v 2.73575 1.765 -1.66533e-16
v 2.91225 3.883 -1.66533e-16
v 2.118 2.118 -1.66533e-16
v 1.9415 -9.86272e-10 -1.66533e-16


# Vertex Texture Coordinates :
vt 0.0923166 0
vt 0.20765 0.461334
vt 0.13845 0.5536
vt 4.98789e-05 0
vt 0.330069 0
vt 0.214736 0.461334
vt 0.283936 0.5536
vt 0.422336 0
vt 0.429408 3.41569e-05
vt 0.90494 3.41569e-05
vt 0 0.560642
vt 0.115333 0.560642
vt 0.429362 0.086828
vt 1 0.086828
vt 3.97739e-05 0.647436
vt 0.0923065 0.647436
vt 0.429408 0.0797526
vt 0.90494 0.0797526
vt 0 0.64036
vt 0.115333 0.64036
vt 0.429362 0.166546
vt 1 0.166546
vt 3.97739e-05 0.727154
vt 0.0923065 0.727154
vt 0.667174 0.0398934
vt 0.0576667 0.600501
vt 0.714681 0.126687
vt 0.0461731 0.687295


# Vertex Surface Normals: 
vn 0 0 1
vn 0 0 -1
vn 0.970143 -0.242536 0
vn 0.970143 -0.242536 0
vn 0.8 0.6 0
vn 0.8 0.6 0
vn -0.970143 0.242536 0
vn -0.970143 0.242536 0
vn 0 -1 0
vn 0 -1 0
vn 0.970143 -0.242536 0
vn 0.970143 -0.242536 0
vn 0.8 0.6 0
vn 0.8 0.6 0
vn -0.970143 0.242536 0
vn -0.970143 0.242536 0
vn 0 -1 0
vn 0 -1 0
vn 0.970143 -0.242536 0
vn 0.8 0.6 0
vn -0.970143 0.242536 0
vn 0 -1 0


# Faces: 
usemtl material3
f 44/86/65 41/83/65 42/84/65
f 42/84/65 43/85/65 44/86/65
f 37/87/66 40/90/66 38/88/66
f 39/89/66 38/88/66 40/90/66
f 45/107/83 37/91/67 38/92/68
f 45/107/83 38/92/68 42/100/76
f 45/107/83 42/100/76 41/99/75
f 45/107/83 41/99/75 37/91/67
f 46/108/84 38/93/69 39/94/70
f 46/108/84 39/94/70 43/102/78
f 46/108/84 43/102/78 42/101/77
f 46/108/84 42/101/77 38/93/69
f 47/109/85 39/95/71 40/96/72
f 47/109/85 40/96/72 44/104/80
f 47/109/85 44/104/80 43/103/79
f 47/109/85 43/103/79 39/95/71
f 48/110/86 40/97/73 37/98/74
f 48/110/86 37/98/74 41/106/82
f 48/110/86 41/106/82 44/105/81
f 48/110/86 44/105/81 40/97/73

# Vertex Positions: 
g groupNumber_4
v -2.118 -0.706 -0.304992
v -1.059 3.53 -0.304992
v -1.765 3.53 -0.304992
v -2.824 -0.706 -0.304992
v -2.118 -0.706 0.304992
v -1.059 3.53 0.304992
v -1.765 3.53 0.304992
v -2.824 -0.706 0.304992
v -1.5885 1.412 -2.77556e-16
v -1.412 3.53 -2.77556e-16
v -2.2945 1.412 -2.77556e-16
v -2.471 -0.706 -2.77556e-16


# Vertex Texture Coordinates :
vt 0.0882121 0
vt 0.22053 0.529273
vt 0.132318 0.529273
vt 0 0
vt 0.359547 0
vt 0.227229 0.529273
vt 0.315441 0.529273
vt 0.447759 0
vt 0.454438 3.26558e-05
vt 1 3.26558e-05
vt 2.83649e-05 0.536005
vt 0.0882405 0.536005
vt 0.454438 0.0830124
vt 1 0.0830124
vt 0.0949956 0.536005
vt 0.183208 0.536005
vt 0.454438 0.0762479
vt 1 0.0762479
vt 2.83649e-05 0.61222
vt 0.0882405 0.61222
vt 0.454438 0.159228
vt 1 0.159228
vt 0.0949956 0.61222
vt 0.183208 0.61222
vt 0.727219 0.0381403
vt 0.0441344 0.574112
vt 0.727219 0.12112
vt 0.139102 0.574112


# Vertex Surface Normals: 
vn 0 0 1
vn 0 0 -1
vn 0.970143 -0.242536 0
vn 0.970143 -0.242536 0
vn 3.9443e-31 1 0
vn 3.9443e-31 1 0
vn -0.970143 0.242536 0
vn -0.970143 0.242536 0
vn -3.9443e-31 -1 0
vn -3.9443e-31 -1 0
vn 0.970143 -0.242536 0
vn 0.970143 -0.242536 0
vn 3.9443e-31 1 0
vn 3.9443e-31 1 0
vn -0.970143 0.242536 0
vn -0.970143 0.242536 0
vn -3.9443e-31 -1 0
vn -3.9443e-31 -1 0
vn 0.970143 -0.242536 0
vn 3.9443e-31 1 0
vn -0.970143 0.242536 0
vn -3.9443e-31 -1 0


# Faces: 
usemtl material4
f 56/114/87 53/111/87 55/113/87
f 54/112/87 55/113/87 53/111/87
f 49/115/88 52/118/88 51/117/88
f 51/117/88 50/116/88 49/115/88
f 57/135/105 49/119/89 50/120/90
f 57/135/105 50/120/90 54/128/98
f 57/135/105 54/128/98 53/127/97
f 57/135/105 53/127/97 49/119/89
f 58/136/106 50/121/91 51/122/92
f 58/136/106 51/122/92 55/130/100
f 58/136/106 55/130/100 54/129/99
f 58/136/106 54/129/99 50/121/91
f 59/137/107 51/123/93 52/124/94
f 59/137/107 52/124/94 56/132/102
f 59/137/107 56/132/102 55/131/101
f 59/137/107 55/131/101 51/123/93
f 60/138/108 52/125/95 49/126/96
f 60/138/108 49/126/96 53/134/104
f 60/138/108 53/134/104 56/133/103
f 60/138/108 56/133/103 52/125/95

# Vertex Positions: 
g groupNumber_5
v 3.3535 -1.412 -0.304992
v 4.4125 2.824 -0.304992
v 3.7065 2.824 -0.304992
v 2.6475 -1.412 -0.304992
v 3.3535 -1.412 0.304992
v 4.4125 2.824 0.304992
v 3.7065 2.824 0.304992
v 2.6475 -1.412 0.304992
v 3.883 0.706 -3.33067e-16
v 4.0595 2.824 -3.33067e-16
v 3.177 0.706 -3.33067e-16
v 3.0005 -1.412 -3.33067e-16


# Vertex Texture Coordinates :
vt 0.0882121 0
vt 0.22053 0.529273
vt 0.132318 0.529273
vt 0 0
vt 0.359547 0
vt 0.227229 0.529273
vt 0.315441 0.529273
vt 0.447759 0
vt 0.454438 3.26558e-05
vt 1 3.26558e-05
vt 2.83649e-05 0.536005
vt 0.0882405 0.536005
vt 0.454438 0.0830124
vt 1 0.0830124
vt 0.0949956 0.536005
vt 0.183208 0.536005
vt 0.454438 0.0762479
vt 1 0.0762479
vt 2.83649e-05 0.61222
vt 0.0882405 0.61222
vt 0.454438 0.159228
vt 1 0.159228
vt 0.0949956 0.61222
vt 0.183208 0.61222
vt 0.727219 0.0381403
vt 0.0441344 0.574112
vt 0.727219 0.12112
vt 0.139102 0.574112


# Vertex Surface Normals: 
vn 0 0 1
vn 0 0 -1
vn 0.970143 -0.242536 0
vn 0.970143 -0.242536 0
vn 2.08962e-15 1 0
vn 2.08962e-15 1 0
vn -0.970143 0.242536 0
vn -0.970143 0.242536 0
vn -2.08962e-15 -1 0
vn -2.08962e-15 -1 0
vn 0.970143 -0.242536 0
vn 0.970143 -0.242536 0
vn 2.08962e-15 1 0
vn 2.08962e-15 1 0
vn -0.970143 0.242536 0
vn -0.970143 0.242536 0
vn -2.08962e-15 -1 0
vn -2.08962e-15 -1 0
vn 0.970143 -0.242536 0
vn 2.08962e-15 1 0
vn -0.970143 0.242536 0
vn -2.08962e-15 -1 0


# Faces: 
usemtl material5
f 68/142/109 65/139/109 67/141/109
f 66/140/109 67/141/109 65/139/109
f 61/143/110 64/146/110 63/145/110
f 63/145/110 62/144/110 61/143/110
f 69/163/127 61/147/111 62/148/112
f 69/163/127 62/148/112 66/156/120
f 69/163/127 66/156/120 65/155/119
f 69/163/127 65/155/119 61/147/111
f 70/164/128 62/149/113 63/150/114
f 70/164/128 63/150/114 67/158/122
f 70/164/128 67/158/122 66/157/121
f 70/164/128 66/157/121 62/149/113
f 71/165/129 63/151/115 64/152/116
f 71/165/129 64/152/116 68/160/124
f 71/165/129 68/160/124 67/159/123
f 71/165/129 67/159/123 63/151/115
f 72/166/130 64/153/117 61/154/118
f 72/166/130 61/154/118 65/162/126
f 72/166/130 65/162/126 68/161/125
f 72/166/130 68/161/125 64/153/117

# Vertex Positions: 
g groupNumber_6
v -0.8825 -1.412 -0.304992
v 0.5295 4.236 -0.304992
v -0.353 3.53 -0.304992
v -1.412 -0.706 -0.304992
v -0.8825 -1.412 0.304992
v 0.5295 4.236 0.304992
v -0.353 3.53 0.304992
v -1.412 -0.706 0.304992
v -0.1765 1.412 -1.66533e-16
v 0.08825 3.883 -1.66533e-16
v -0.8825 1.412 -1.66533e-16
v -1.14725 -1.059 -1.66533e-16


# Vertex Texture Coordinates :
vt 0.0537725 0
vt 0.197166 0.573573
vt 0.107545 0.501877
vt 0 0.0716966
vt 0.347782 0
vt 0.204389 0.573573
vt 0.294009 0.501877
vt 0.401554 0.0716966
vt 0.408774 3.92382e-05
vt 1 3.92382e-05
vt 0.408837 0.0693235
vt 0.523608 0.0693235
vt 0.967027 0.0693235
vt 5.01157e-06 0.580872
vt 0.0896258 0.580872
vt 0.408774 0.0619851
vt 1 0.0619851
vt 0.408837 0.131269
vt 0.523608 0.131269
vt 0.967027 0.131269
vt 5.01157e-06 0.642818
vt 0.0896258 0.642818
vt 0.704387 0.0310122
vt 0.466223 0.100296
vt 0.745317 0.100296
vt 0.0448154 0.611845


# Vertex Surface Normals: 
vn 0 0 1
vn 0 0 -1
vn 0.970143 -0.242536 0
vn 0.970143 -0.242536 0
vn -0.624695 0.780869 0
vn -0.841622 0.540067 0
vn -0.970143 0.242536 0
vn -0.8 -0.6 0
vn -0.8 -0.6 0
vn 0.970143 -0.242536 0
vn 0.970143 -0.242536 0
vn -0.624695 0.780869 0
vn -0.841622 0.540067 0
vn -0.970143 0.242536 0
vn -0.8 -0.6 0
vn -0.8 -0.6 0
vn 0.970143 -0.242536 0
vn -0.733158 0.660468 0
vn -0.905882 0.391301 0
vn -0.8 -0.6 0


# Faces: 
usemtl material6
f 80/170/131 77/167/131 79/169/131
f 78/168/131 79/169/131 77/167/131
f 73/171/132 76/174/132 75/173/132
f 75/173/132 74/172/132 73/171/132
f 81/189/147 73/175/133 74/176/134
f 81/189/147 74/176/134 78/183/141
f 81/189/147 78/183/141 77/182/140
f 81/189/147 77/182/140 73/175/133
f 82/190/148 74/177/135 75/178/136
f 82/190/148 75/178/136 79/185/143
f 82/190/148 79/185/143 78/184/142
f 82/190/148 78/184/142 74/177/135
f 83/191/149 75/178/136 76/179/137
f 83/191/149 76/179/137 80/186/144
f 83/191/149 80/186/144 79/185/143
f 83/191/149 79/185/143 75/178/136
f 84/192/150 76/180/138 73/181/139
f 84/192/150 73/181/139 77/188/146
f 84/192/150 77/188/146 80/187/145
f 84/192/150 80/187/145 76/180/138

# Vertex Positions: 
g groupNumber_7
v 0.5295 -4.236 -0.304992
v 2.118 -0.706 -0.304992
v 0.706 -0.706 -0.304992
v 1.9415 4.236 -0.304992
v 1.2355 4.236 -0.304992
v -0.1765 -1.412 -0.304992
v 1.2355 -1.412 -0.304992
v 0.5295 -4.236 0.304992
v 2.118 -0.706 0.304992
v 0.706 -0.706 0.304992
v 1.9415 4.236 0.304992
v 1.2355 4.236 0.304992
v -0.1765 -1.412 0.304992
v 1.2355 -1.412 0.304992
v 1.32375 -2.471 0
v 1.412 -0.706 0
v 1.32375 1.765 0
v 1.5885 4.236 0
v 0.5295 1.412 0
v 0.5295 -1.412 0
v 0.8825 -2.824 0


# Vertex Texture Coordinates :
vt 0.0664781 0
vt 0.216054 0.332391
vt 0.0830977 0.332391
vt 0.199434 0.797738
vt 0.132956 0.797738
vt 1.85738e-10 0.265913
vt 0.132956 0.265913
vt 0.375498 0
vt 0.225922 0.332391
vt 0.358878 0.332391
vt 0.242541 0.797738
vt 0.309019 0.797738
vt 0.441976 0.265913
vt 0.309019 0.265913
vt 0.451827 8.56946e-06
vt 0.816322 8.56946e-06
vt 0.82614 8.56946e-06
vt 0.959096 8.56946e-06
vt 0.451791 0.0672008
vt 0.93146 0.0672008
vt 0 0.807484
vt 0.0664781 0.807484
vt 0.451807 0.134393
vt 1 0.134393
vt 0.0763135 0.807484
vt 0.20927 0.807484
vt 0.451842 0.201585
vt 0.725938 0.201585
vt 0.451827 0.0574457
vt 0.816322 0.0574457
vt 0.82614 0.0574457
vt 0.959096 0.0574457
vt 0.451791 0.124638
vt 0.93146 0.124638
vt 0 0.864921
vt 0.0664781 0.864921
vt 0.451807 0.19183
vt 1 0.19183
vt 0.0763135 0.864921
vt 0.20927 0.864921
vt 0.451842 0.259022
vt 0.725938 0.259022
vt 0.634074 0.0287271
vt 0.892618 0.0287271
vt 0.691626 0.0959194
vt 0.0332391 0.836203
vt 0.725904 0.163112
vt 0.142792 0.836203
vt 0.58889 0.230304


# Vertex Surface Normals: 
vn 0 0 1
vn 0 0 -1
vn 0.911922 -0.410365 0
vn 0.911922 -0.410365 0
vn 0 1 0
vn 0 1 0
vn 0.970143 -0.242536 0
vn 0.970143 -0.242536 0
vn 0 1 0
vn 0 1 0
vn -0.970143 0.242536 0
vn -0.970143 0.242536 0
vn 0 -1 0
vn 0 -1 0
vn -0.970143 0.242536 0
vn -0.970143 0.242536 0
vn 0.911922 -0.410365 0
vn 0.911922 -0.410365 0
vn 0 1 0
vn 0 1 0
vn 0.970143 -0.242536 0
vn 0.970143 -0.242536 0
vn 0 1 0
vn 0 1 0
vn -0.970143 0.242536 0
vn -0.970143 0.242536 0
vn 0 -1 0
vn 0 -1 0
vn -0.970143 0.242536 0
vn -0.970143 0.242536 0
vn 0.911922 -0.410365 0
vn 0 1 0
vn 0.970143 -0.242536 0
vn 0 1 0
vn -0.970143 0.242536 0
vn 0 -1 0
vn -0.970143 0.242536 0


# Faces: 
usemtl material7
f 94/195/151 97/198/151 98/199/151
f 97/198/151 94/195/151 96/197/151
f 93/194/151 98/199/151 92/193/151
f 96/197/151 94/195/151 95/196/151
f 93/194/151 94/195/151 98/199/151
f 90/205/152 87/202/152 91/206/152
f 87/202/152 90/205/152 89/204/152
f 91/206/152 86/201/152 85/200/152
f 87/202/152 89/204/152 88/203/152
f 87/202/152 86/201/152 91/206/152
f 99/235/181 85/207/153 86/208/154
f 99/235/181 86/208/154 93/222/168
f 99/235/181 93/222/168 92/221/167
f 99/235/181 92/221/167 85/207/153
f 100/236/182 86/209/155 87/210/156
f 100/236/182 87/210/156 94/224/170
f 100/236/182 94/224/170 93/223/169
f 100/236/182 93/223/169 86/209/155
f 101/237/183 87/211/157 88/212/158
f 101/237/183 88/212/158 95/226/172
f 101/237/183 95/226/172 94/225/171
f 101/237/183 94/225/171 87/211/157
f 102/238/184 88/213/159 89/214/160
f 102/238/184 89/214/160 96/228/174
f 102/238/184 96/228/174 95/227/173
f 102/238/184 95/227/173 88/213/159
f 103/239/185 89/215/161 90/216/162
f 103/239/185 90/216/162 97/230/176
f 103/239/185 97/230/176 96/229/175
f 103/239/185 96/229/175 89/215/161
f 104/240/186 90/217/163 91/218/164
f 104/240/186 91/218/164 98/232/178
f 104/240/186 98/232/178 97/231/177
f 104/240/186 97/231/177 90/217/163
f 105/241/187 91/219/165 85/220/166
f 105/241/187 85/220/166 92/234/180
f 105/241/187 92/234/180 98/233/179
f 105/241/187 98/233/179 91/219/165
